<svg id="Calque_1" data-name="Calque 1" xmlns="http://www.w3.org/2000/svg" viewBox="0 0 896 523.76"><defs><style>.cls-1{fill:#fff;}</style></defs><title>cloud_icon</title><path class="cls-1" d="M64,649.83c0-2.55,0-4.3,0-5.94,0-.31,0-.63,0-.95C64,637.46,64,655.18,64,649.83ZM635.18,443.08A194.65,194.65,0,0,0,596.41,447C558.64,386.79,491.83,346.6,415.48,346.6c-86.24,0-160.35,51.21-194.1,124.78C133.23,478.65,64,549.54,64,636.05c0,3.58,0,5.6,0,7.84.52,71.58,59.23,130,130.93,130H691.14c70.63,0,128.66-56.69,130.87-126.81-.21-7.66-.48-17.61-.48-24.8C821.53,523.31,738.1,443.08,635.18,443.08Zm186.9,199.86c0,1.38,0,2.76-.07,4.13l.07,2.76C822.28,657.9,822.08,634.59,822.08,642.94Zm-12.88-315a156.12,156.12,0,0,0-31.26,3.18c-30.47-48.58-84.34-81-145.92-81-58.15,0-109.39,28.94-140.56,73.08A237.86,237.86,0,0,1,613.1,420.92a214.89,214.89,0,0,1,43-4.37c106.77,0,194.6,77.88,205.46,177.78,54.1-3.72,97.29-48.56,98.28-103.33-.16-6-.35-13.19-.35-18.57,0-79.81-67.28-144.5-150.28-144.5ZM959.92,489.1c0,.64-.08,1.26-.09,1.9,0,1.26.07,2.55.09,3.66.17,6.51,0-12.29,0-5.56Z" transform="translate(-64 -250.12)"/></svg>