<svg id="Calque_1" data-name="Calque 1" xmlns="http://www.w3.org/2000/svg" viewBox="0 0 573.05 555.83"><defs><style>.cls-1{fill:#fff;}</style></defs><title>icon_home</title><path class="cls-1" d="M299.8,577.9h-126c-13,0-25.5-2.6-37-9-24.2-13.4-37.9-33.8-40.8-61.4-.3-3.3-.4-6.7-.4-10V392.3c0-3.7,0-3.7-3.7-3.7-37.6-.4-71.7-29.7-77.4-66.8-4.3-27.8,3.2-51.9,23.2-72Q139.25,148.1,240.9,46.5c13.9-13.9,30.3-22.2,49.8-24,26.3-2.4,49.1,5.1,68,24.1q69.9,70.2,140.2,140.2,30.75,30.6,61.4,61.2a90.72,90.72,0,0,1,17.3,23.1,80.58,80.58,0,0,1-11.2,89.7c-15.6,17.9-35.5,27.2-59.3,27.7-2.7.1-3.1,1-3.1,3.4.1,37,.2,74,0,111-.2,35.6-27.9,67.8-63,73.7a99.85,99.85,0,0,1-16.4,1.3Zm47.4-119.6c0-8.6-.1-17.2,0-25.7A36.83,36.83,0,0,0,335.7,405c-14.9-14.5-32.8-17.9-52.2-11.9-19.1,5.9-30.9,21.7-31.1,40.5q-.15,24.6,0,49.2c.1,11,3.8,20.6,11.5,28.5,16,16.5,42.8,19.8,62.6,7.6,13.6-8.4,21.1-20.4,20.8-36.8C347.1,474.1,347.2,466.2,347.2,458.3Z" transform="translate(-13.33 -22.07)"/></svg>