<?xml version="1.0" encoding="utf-8"?>
<!-- Svg Vector Icons : http://www.onlinewebfonts.com/icon -->
<!DOCTYPE svg PUBLIC "-//W3C//DTD SVG 1.1//EN" "http://www.w3.org/Graphics/SVG/1.1/DTD/svg11.dtd">
<svg version="1.1" xmlns="http://www.w3.org/2000/svg" xmlns:xlink="http://www.w3.org/1999/xlink" x="0px" y="0px" viewBox="0 0 1000 1000" enable-background="new 0 0 1000 1000" xml:space="preserve">
<metadata> Svg Vector Icons : http://www.onlinewebfonts.com/icon </metadata>
<g><path d="M772.4,990H227.6c-75.1,0-136-57.7-136-129.1v-355c0-68.2,55.7-123.4,126.1-128.2v-93.4c0-151.5,129.4-274.3,289-274.3c159.6,0,289,122.8,289,274.3v94.6c63.9,10.6,112.6,63.2,112.6,127v355C908.3,932.3,847.4,990,772.4,990L772.4,990z M465.1,710.9v118.2h102V709c32-17.5,53.8-49.9,53.8-87.5c0-55.9-47.7-101.2-106.6-101.2c-58.9,0-106.6,45.3-106.6,101.2C407.6,660.6,431.1,694,465.1,710.9L465.1,710.9z M704.1,301.1c0-103.7-88.6-187.8-197.9-187.8c-109.2,0-197.9,84.1-197.9,187.8v75.7h395.8V301.1L704.1,301.1z"/></g>
</svg>