<svg id="Capa_1" data-name="Capa 1" xmlns="http://www.w3.org/2000/svg" viewBox="0 0 72.37 72.37"><defs><style>.cls-1{fill:#fff;}</style></defs><title>sport_icon</title><path class="cls-1" d="M22.57,2.65A36.16,36.16,0,0,0,0,36.19,36.2,36.2,0,0,0,49.8,69.72,36.16,36.16,0,0,0,72.37,36.19,36.2,36.2,0,0,0,22.57,2.65ZM9,51.42a25.26,25.26,0,0,1-4.77-3.84,34.12,34.12,0,0,1-1.1-19,30.61,30.61,0,0,1,2.32-3.84c.27-.38.52-.78.81-1.15l8.16,4.84v.2a63.56,63.56,0,0,0,1.31,13.05.09.09,0,0,1,0,0L9.45,51.65ZM33.32,68.21A31.74,31.74,0,0,0,37.67,70a34,34,0,0,1-18.36-4.45L33,68Zm0-2.47L17.12,62.86a50.93,50.93,0,0,1-5.05-7.32c-.37-.66-.79-1.3-1.1-2l6.32-9.92.48.12a104.65,104.65,0,0,0,12,2.4l.6.08L38,59.34c-1.32,1.85-2.65,3.69-4,5.51C33.76,65.15,33.52,65.45,33.27,65.74Zm26.88-5.59a33.26,33.26,0,0,1-4.08,3.48,31.88,31.88,0,0,0-1.22-5.56L62.94,43a37.61,37.61,0,0,0,6.37-3.59,3,3,0,0,0,.65-.62A33.76,33.76,0,0,1,60.15,60.15Zm-.36-19.58c.3.58.6,1.15.9,1.74L52.87,56.89l-.13,0A71.3,71.3,0,0,1,40,58.15l-7.8-13.49c1.21-2.25,2.42-4.52,3.61-6.78q1.21-2.31,2.4-4.63l16.14-1.66A90.46,90.46,0,0,1,59.79,40.57ZM56.52,23.28c-.77,2-1.59,4-2.41,6L38.39,30.92c-.19-.24-.38-.49-.59-.72-1.86-2.11-3.73-4.19-5.59-6.29l0-.06L30,21.6,34.38,8.41a7,7,0,0,1,.91-.18c2.38-.24,4.76-.51,7.15-.65a34.14,34.14,0,0,1,4.41,0L57.69,19.77C57.31,20.94,57,22.12,56.52,23.28Zm3.63-11.06a33.73,33.73,0,0,1,6.94,10,34.65,34.65,0,0,0-6.46-3.47c-.36-.15-.72-.28-1.09-.41l-10.66-12c.07-.52.11-1,.13-1.57A33.88,33.88,0,0,1,60.15,12.22Zm-34.82-8,.09.07A27,27,0,0,1,32.16,7.8L28.07,20.12l-.06,0c-.83.34-1.69.65-2.51,1a70.88,70.88,0,0,0-9.82,5.3L7.61,21.69A2.25,2.25,0,0,1,7.75,21c.54-1.45,1.07-2.9,1.68-4.31A32.42,32.42,0,0,1,11,13.48c.38-.43.78-.85,1.19-1.26A33.8,33.8,0,0,1,25.41,4.06Z"/></svg>